<svg xmlns="http://www.w3.org/2000/svg" xmlns:xlink="http://www.w3.org/1999/xlink" width="580" zoomAndPan="magnify"
    viewBox="0 0 434.88 112.499997" height="150" preserveAspectRatio="xMidYMid meet" version="1.0">
    <defs>
        <g />
        <clipPath id="id1">
            <path d="M 39 31 L 93.671875 31 L 93.671875 92.734375 L 39 92.734375 Z M 39 31 " clip-rule="nonzero" />
        </clipPath>
        <clipPath id="id2">
            <path d="M 20.496094 19.558594 L 75 19.558594 L 75 80 L 20.496094 80 Z M 20.496094 19.558594 "
                clip-rule="nonzero" />
        </clipPath>
    </defs>
    <g clip-path="url(#id1)">
        <path fill="#050a30"
            d="M 93.671875 56.144531 C 93.671875 76.320312 77.261719 92.734375 57.085938 92.734375 C 54.375 92.734375 51.726562 92.4375 49.183594 91.875 C 45.628906 91.089844 42.269531 89.789062 39.1875 88.050781 L 46.019531 83.691406 C 49.378906 85.046875 53.039062 85.804688 56.871094 85.828125 C 56.941406 85.832031 57.015625 85.832031 57.082031 85.832031 C 72.914062 85.832031 85.890625 73.382812 86.726562 57.753906 C 86.753906 57.222656 86.765625 56.683594 86.765625 56.148438 C 86.765625 50.171875 84.992188 44.59375 81.933594 39.933594 C 83.53125 37.796875 84.46875 35.21875 84.46875 32.445312 C 84.46875 32.261719 84.460938 32.078125 84.453125 31.894531 C 89.613281 37.707031 92.953125 45.175781 93.570312 53.390625 C 93.636719 54.300781 93.671875 55.222656 93.671875 56.144531 Z M 93.671875 56.144531 "
            fill-opacity="1" fill-rule="nonzero" />
    </g>
    <path fill="#ffbd59"
        d="M 81.457031 31.152344 C 81.292969 29.292969 80.730469 27.441406 79.738281 25.71875 L 76.773438 27.433594 L 71.203125 30.644531 L 71.199219 30.644531 L 60.988281 36.539062 L 60.988281 36.542969 L 58.1875 38.15625 L 46.664062 44.808594 C 42.425781 47.257812 40.050781 51.699219 40.050781 56.269531 C 40.050781 58.234375 40.488281 60.222656 41.410156 62.085938 C 41.535156 62.347656 41.679688 62.609375 41.828125 62.867188 L 53.1875 56.304688 L 53.203125 56.300781 L 53.207031 56.300781 L 53.214844 56.296875 L 55.035156 55.242188 L 62.167969 51.125 L 74.894531 43.777344 C 77.214844 42.4375 78.976562 40.5 80.09375 38.273438 C 81.019531 36.429688 81.507812 34.386719 81.507812 32.316406 C 81.507812 31.929688 81.492188 31.539062 81.457031 31.152344 Z M 81.457031 31.152344 "
        fill-opacity="1" fill-rule="nonzero" />
    <path fill="#ffbd59"
        d="M 73.359375 53.484375 C 73.066406 52.230469 72.589844 50.992188 71.914062 49.816406 L 64.941406 53.84375 L 64.9375 53.84375 L 62.34375 55.34375 L 55.269531 59.425781 L 49.105469 62.984375 L 38.84375 68.90625 C 36.757812 70.113281 35.125 71.796875 34 73.742188 C 32.84375 75.753906 32.230469 78.042969 32.230469 80.367188 C 32.230469 81.023438 32.28125 81.683594 32.378906 82.339844 C 32.621094 83.925781 33.152344 85.492188 34.003906 86.964844 L 36.402344 85.582031 L 43.558594 81.449219 L 55.925781 74.308594 L 55.929688 74.304688 L 59.371094 72.320312 L 67.070312 67.875 C 71.3125 65.425781 73.683594 60.980469 73.683594 56.410156 C 73.683594 56.085938 73.671875 55.761719 73.648438 55.4375 C 73.601562 54.785156 73.5 54.128906 73.359375 53.484375 Z M 73.359375 53.484375 "
        fill-opacity="1" fill-rule="nonzero" />
    <g clip-path="url(#id2)">
        <path fill="#050a30"
            d="M 74.089844 23.757812 L 67.109375 28.207031 C 63.976562 27.074219 60.601562 26.460938 57.085938 26.460938 C 56.914062 26.460938 56.738281 26.460938 56.570312 26.46875 C 41.34375 26.730469 28.882812 38.496094 27.523438 53.429688 C 27.441406 54.324219 27.402344 55.230469 27.402344 56.144531 C 27.402344 61.878906 29.035156 67.242188 31.867188 71.785156 C 30.210938 73.941406 29.242188 76.5625 29.242188 79.386719 C 29.242188 79.546875 29.25 79.710938 29.253906 79.867188 C 24.148438 73.886719 20.929688 66.25 20.539062 57.886719 C 20.511719 57.308594 20.496094 56.730469 20.496094 56.144531 C 20.496094 35.96875 36.910156 19.558594 57.085938 19.558594 C 59.410156 19.558594 61.6875 19.773438 63.890625 20.191406 C 67.503906 20.875 70.933594 22.089844 74.089844 23.757812 Z M 74.089844 23.757812 "
            fill-opacity="1" fill-rule="nonzero" />
    </g>
    <g fill="#050a30" fill-opacity="1">
        <g transform="translate(108.036839, 77.999377)">
            <g>
                <path
                    d="M 3.40625 -2.328125 L 3.40625 -39.078125 C 3.40625 -39.796875 3.722656 -40.363281 4.359375 -40.78125 C 5.003906 -41.195312 5.757812 -41.40625 6.625 -41.40625 L 26.390625 -41.40625 C 27.148438 -41.40625 27.71875 -41.09375 28.09375 -40.46875 C 28.46875 -39.84375 28.65625 -39.097656 28.65625 -38.234375 C 28.65625 -37.328125 28.457031 -36.550781 28.0625 -35.90625 C 27.664062 -35.269531 27.109375 -34.953125 26.390625 -34.953125 L 10.765625 -34.953125 L 10.765625 -23.625 L 19.421875 -23.625 C 20.140625 -23.625 20.695312 -23.335938 21.09375 -22.765625 C 21.488281 -22.203125 21.6875 -21.503906 21.6875 -20.671875 C 21.6875 -19.921875 21.488281 -19.257812 21.09375 -18.6875 C 20.695312 -18.125 20.140625 -17.84375 19.421875 -17.84375 L 10.765625 -17.84375 L 10.765625 -2.328125 C 10.765625 -1.609375 10.394531 -1.039062 9.65625 -0.625 C 8.914062 -0.207031 8.054688 0 7.078125 0 C 6.054688 0 5.1875 -0.207031 4.46875 -0.625 C 3.757812 -1.039062 3.40625 -1.609375 3.40625 -2.328125 Z M 3.40625 -2.328125 " />
            </g>
        </g>
    </g>
    <g fill="#050a30" fill-opacity="1">
        <g transform="translate(138.675884, 77.999377)">
            <g>
                <path
                    d="M 3.40625 -2.328125 L 3.40625 -39.078125 C 3.40625 -39.796875 3.722656 -40.363281 4.359375 -40.78125 C 5.003906 -41.195312 5.757812 -41.40625 6.625 -41.40625 L 26.796875 -41.40625 C 27.546875 -41.40625 28.117188 -41.082031 28.515625 -40.4375 C 28.910156 -39.800781 29.109375 -39.066406 29.109375 -38.234375 C 29.109375 -37.328125 28.898438 -36.550781 28.484375 -35.90625 C 28.078125 -35.269531 27.515625 -34.953125 26.796875 -34.953125 L 10.765625 -34.953125 L 10.765625 -23.625 L 19.375 -23.625 C 20.09375 -23.625 20.65625 -23.328125 21.0625 -22.734375 C 21.476562 -22.148438 21.6875 -21.460938 21.6875 -20.671875 C 21.6875 -19.953125 21.488281 -19.300781 21.09375 -18.71875 C 20.695312 -18.132812 20.125 -17.84375 19.375 -17.84375 L 10.765625 -17.84375 L 10.765625 -6.453125 L 26.796875 -6.453125 C 27.515625 -6.453125 28.078125 -6.128906 28.484375 -5.484375 C 28.898438 -4.847656 29.109375 -4.078125 29.109375 -3.171875 C 29.109375 -2.335938 28.910156 -1.597656 28.515625 -0.953125 C 28.117188 -0.316406 27.546875 0 26.796875 0 L 6.625 0 C 5.757812 0 5.003906 -0.207031 4.359375 -0.625 C 3.722656 -1.039062 3.40625 -1.609375 3.40625 -2.328125 Z M 3.40625 -2.328125 " />
            </g>
        </g>
    </g>
    <g fill="#050a30" fill-opacity="1">
        <g transform="translate(170.560862, 77.999377)">
            <g>
                <path
                    d="M 3.40625 -2.328125 L 3.40625 -39.078125 C 3.40625 -39.796875 3.722656 -40.363281 4.359375 -40.78125 C 5.003906 -41.195312 5.757812 -41.40625 6.625 -41.40625 L 26.796875 -41.40625 C 27.546875 -41.40625 28.117188 -41.082031 28.515625 -40.4375 C 28.910156 -39.800781 29.109375 -39.066406 29.109375 -38.234375 C 29.109375 -37.328125 28.898438 -36.550781 28.484375 -35.90625 C 28.078125 -35.269531 27.515625 -34.953125 26.796875 -34.953125 L 10.765625 -34.953125 L 10.765625 -23.625 L 19.375 -23.625 C 20.09375 -23.625 20.65625 -23.328125 21.0625 -22.734375 C 21.476562 -22.148438 21.6875 -21.460938 21.6875 -20.671875 C 21.6875 -19.953125 21.488281 -19.300781 21.09375 -18.71875 C 20.695312 -18.132812 20.125 -17.84375 19.375 -17.84375 L 10.765625 -17.84375 L 10.765625 -6.453125 L 26.796875 -6.453125 C 27.515625 -6.453125 28.078125 -6.128906 28.484375 -5.484375 C 28.898438 -4.847656 29.109375 -4.078125 29.109375 -3.171875 C 29.109375 -2.335938 28.910156 -1.597656 28.515625 -0.953125 C 28.117188 -0.316406 27.546875 0 26.796875 0 L 6.625 0 C 5.757812 0 5.003906 -0.207031 4.359375 -0.625 C 3.722656 -1.039062 3.40625 -1.609375 3.40625 -2.328125 Z M 3.40625 -2.328125 " />
            </g>
        </g>
    </g>
    <g fill="#050a30" fill-opacity="1">
        <g transform="translate(202.445842, 77.999377)">
            <g>
                <path
                    d="M 3.40625 -2.328125 L 3.40625 -39.140625 C 3.40625 -39.890625 3.757812 -40.453125 4.46875 -40.828125 C 5.1875 -41.210938 6.054688 -41.40625 7.078125 -41.40625 C 8.097656 -41.40625 8.96875 -41.210938 9.6875 -40.828125 C 10.40625 -40.453125 10.765625 -39.890625 10.765625 -39.140625 L 10.765625 -6.453125 L 24.578125 -6.453125 C 25.265625 -6.453125 25.804688 -6.128906 26.203125 -5.484375 C 26.597656 -4.847656 26.796875 -4.09375 26.796875 -3.21875 C 26.796875 -2.351562 26.597656 -1.597656 26.203125 -0.953125 C 25.804688 -0.316406 25.265625 0 24.578125 0 L 6.625 0 C 5.757812 0 5.003906 -0.207031 4.359375 -0.625 C 3.722656 -1.039062 3.40625 -1.609375 3.40625 -2.328125 Z M 3.40625 -2.328125 " />
            </g>
        </g>
    </g>
    <g fill="#ffbd59" fill-opacity="1">
        <g transform="translate(234.786814, 78.000097)">
            <g>
                <path
                    d="M 1.1875 -1.59375 C 1.1875 -1.78125 1.207031 -1.910156 1.25 -1.984375 L 13.078125 -40.4375 C 13.347656 -41.3125 14.085938 -41.75 15.296875 -41.75 C 16.503906 -41.75 17.257812 -41.3125 17.5625 -40.4375 L 29.34375 -1.984375 C 29.34375 -1.941406 29.347656 -1.882812 29.359375 -1.8125 C 29.378906 -1.738281 29.390625 -1.679688 29.390625 -1.640625 C 29.390625 -1.191406 29.144531 -0.804688 28.65625 -0.484375 C 28.164062 -0.160156 27.65625 0 27.125 0 C 26.414062 0 25.945312 -0.320312 25.71875 -0.96875 L 23.109375 -9.6875 L 7.421875 -9.6875 L 4.8125 -0.96875 C 4.664062 -0.320312 4.175781 0 3.34375 0 C 2.8125 0 2.316406 -0.148438 1.859375 -0.453125 C 1.410156 -0.753906 1.1875 -1.132812 1.1875 -1.59375 Z M 8.390625 -12.921875 L 22.140625 -12.921875 L 15.296875 -35.734375 Z M 8.390625 -12.921875 " />
            </g>
        </g>
    </g>
    <g fill="#ffbd59" fill-opacity="1">
        <g transform="translate(265.368733, 78.000097)">
            <g>
                <path
                    d="M 4.3125 -1.46875 L 4.3125 -39.984375 C 4.3125 -40.929688 4.929688 -41.40625 6.171875 -41.40625 C 7.234375 -41.40625 8.21875 -40.535156 9.125 -38.796875 L 24.40625 -8.671875 L 24.40625 -40.046875 C 24.40625 -40.953125 25.03125 -41.40625 26.28125 -41.40625 C 27.53125 -41.40625 28.15625 -40.953125 28.15625 -40.046875 L 28.15625 -1.46875 C 28.15625 -1.019531 27.960938 -0.660156 27.578125 -0.390625 C 27.203125 -0.128906 26.769531 0 26.28125 0 C 25.332031 0 24.503906 -0.71875 23.796875 -2.15625 L 8.046875 -32.796875 L 8.046875 -1.46875 C 8.046875 -1.019531 7.851562 -0.660156 7.46875 -0.390625 C 7.09375 -0.128906 6.660156 0 6.171875 0 C 5.640625 0 5.195312 -0.128906 4.84375 -0.390625 C 4.488281 -0.660156 4.3125 -1.019531 4.3125 -1.46875 Z M 4.3125 -1.46875 " />
            </g>
        </g>
    </g>
    <g fill="#ffbd59" fill-opacity="1">
        <g transform="translate(297.819544, 78.000097)">
            <g>
                <path
                    d="M 0.84375 -39.65625 C 0.84375 -40.101562 0.96875 -40.503906 1.21875 -40.859375 C 1.46875 -41.222656 1.816406 -41.40625 2.265625 -41.40625 L 24.984375 -41.40625 C 25.429688 -41.40625 25.773438 -41.234375 26.015625 -40.890625 C 26.265625 -40.554688 26.390625 -40.160156 26.390625 -39.703125 C 26.390625 -39.210938 26.265625 -38.785156 26.015625 -38.421875 C 25.773438 -38.066406 25.429688 -37.890625 24.984375 -37.890625 L 15.515625 -37.890625 L 15.515625 -1.46875 C 15.515625 -1.019531 15.328125 -0.660156 14.953125 -0.390625 C 14.578125 -0.128906 14.144531 0 13.65625 0 C 13.125 0 12.675781 -0.128906 12.3125 -0.390625 C 11.957031 -0.660156 11.78125 -1.019531 11.78125 -1.46875 L 11.78125 -37.890625 L 2.265625 -37.890625 C 1.847656 -37.890625 1.503906 -38.054688 1.234375 -38.390625 C 0.972656 -38.734375 0.84375 -39.15625 0.84375 -39.65625 Z M 0.84375 -39.65625 " />
            </g>
        </g>
    </g>
    <g fill="#ffbd59" fill-opacity="1">
        <g transform="translate(325.060101, 78.000097)">
            <g>
                <path
                    d="M 4.3125 -1.46875 L 4.3125 -39.984375 C 4.3125 -40.441406 4.476562 -40.789062 4.8125 -41.03125 C 5.15625 -41.28125 5.550781 -41.40625 6 -41.40625 L 26.171875 -41.40625 C 27.109375 -41.40625 27.578125 -40.859375 27.578125 -39.765625 C 27.578125 -39.273438 27.453125 -38.847656 27.203125 -38.484375 C 26.960938 -38.128906 26.617188 -37.953125 26.171875 -37.953125 L 8.046875 -37.953125 L 8.046875 -22.375 L 16.9375 -22.375 C 17.382812 -22.375 17.734375 -22.210938 17.984375 -21.890625 C 18.234375 -21.566406 18.359375 -21.160156 18.359375 -20.671875 C 18.359375 -19.648438 17.882812 -19.140625 16.9375 -19.140625 L 8.046875 -19.140625 L 8.046875 -3.453125 L 26.171875 -3.453125 C 26.585938 -3.453125 26.925781 -3.28125 27.1875 -2.9375 C 27.445312 -2.601562 27.578125 -2.191406 27.578125 -1.703125 C 27.578125 -0.566406 27.109375 0 26.171875 0 L 6 0 C 5.550781 0 5.15625 -0.128906 4.8125 -0.390625 C 4.476562 -0.660156 4.3125 -1.019531 4.3125 -1.46875 Z M 4.3125 -1.46875 " />
            </g>
        </g>
    </g>
    <g fill="#ffbd59" fill-opacity="1">
        <g transform="translate(353.829752, 78.000097)">
            <g>
                <path
                    d="M 4.3125 -1.46875 L 4.3125 -40.046875 C 4.3125 -40.878906 4.78125 -41.332031 5.71875 -41.40625 L 15.75 -41.40625 C 19.40625 -41.40625 22.359375 -40.535156 24.609375 -38.796875 C 26.859375 -37.054688 27.984375 -34.207031 27.984375 -30.25 C 27.984375 -23.976562 25.035156 -20.332031 19.140625 -19.3125 L 27.875 -2.546875 C 28.019531 -2.359375 28.09375 -2.113281 28.09375 -1.8125 C 28.09375 -1.320312 27.863281 -0.878906 27.40625 -0.484375 C 26.957031 -0.0859375 26.46875 0.109375 25.9375 0.109375 C 25.257812 0.109375 24.597656 -0.550781 23.953125 -1.875 L 15.234375 -18.859375 L 8.046875 -18.859375 L 8.046875 -1.46875 C 8.046875 -1.019531 7.851562 -0.660156 7.46875 -0.390625 C 7.09375 -0.128906 6.660156 0 6.171875 0 C 5.640625 0 5.195312 -0.128906 4.84375 -0.390625 C 4.488281 -0.660156 4.3125 -1.019531 4.3125 -1.46875 Z M 8.046875 -22.09375 L 15.75 -22.09375 C 21.414062 -22.09375 24.25 -24.753906 24.25 -30.078125 C 24.25 -35.328125 21.414062 -37.953125 15.75 -37.953125 L 8.046875 -37.953125 Z M 8.046875 -22.09375 " />
            </g>
        </g>
    </g>
    <g fill="#ffbd59" fill-opacity="1">
        <g transform="translate(383.788699, 78.000097)">
            <g>
                <path
                    d="M 1.1875 -1.59375 C 1.1875 -1.78125 1.207031 -1.910156 1.25 -1.984375 L 13.078125 -40.4375 C 13.347656 -41.3125 14.085938 -41.75 15.296875 -41.75 C 16.503906 -41.75 17.257812 -41.3125 17.5625 -40.4375 L 29.34375 -1.984375 C 29.34375 -1.941406 29.347656 -1.882812 29.359375 -1.8125 C 29.378906 -1.738281 29.390625 -1.679688 29.390625 -1.640625 C 29.390625 -1.191406 29.144531 -0.804688 28.65625 -0.484375 C 28.164062 -0.160156 27.65625 0 27.125 0 C 26.414062 0 25.945312 -0.320312 25.71875 -0.96875 L 23.109375 -9.6875 L 7.421875 -9.6875 L 4.8125 -0.96875 C 4.664062 -0.320312 4.175781 0 3.34375 0 C 2.8125 0 2.316406 -0.148438 1.859375 -0.453125 C 1.410156 -0.753906 1.1875 -1.132812 1.1875 -1.59375 Z M 8.390625 -12.921875 L 22.140625 -12.921875 L 15.296875 -35.734375 Z M 8.390625 -12.921875 " />
            </g>
        </g>
    </g>
</svg>
